<svg xmlns="http://www.w3.org/2000/svg" xmlns:xlink="http://www.w3.org/1999/xlink" width="1080" zoomAndPan="magnify" viewBox="0 0 810 809.999993" height="1080" preserveAspectRatio="xMidYMid meet" version="1.0"><defs><g/><clipPath id="id1"><path d="M 0 412.5 L 810 412.5 L 810 493.5 L 0 493.5 Z M 0 412.5 " clip-rule="nonzero"/></clipPath><clipPath id="id2"><path d="M 65.246094 65.246094 L 744.746094 65.246094 L 744.746094 744.746094 L 65.246094 744.746094 Z M 65.246094 65.246094 " clip-rule="nonzero"/></clipPath></defs><g fill="#000000" fill-opacity="1"><g transform="translate(81.489953, 528.76136)"><g><path d="M 30.601562 -8.839844 C 30.601562 -3.398438 32.640625 0 38.078125 0 L 81.257812 0 C 86.699219 0 88.738281 -3.398438 88.738281 -8.839844 L 88.738281 -229.160156 C 88.738281 -234.597656 86.699219 -238 81.257812 -238 L 38.078125 -238 C 32.640625 -238 30.601562 -234.597656 30.601562 -229.160156 Z M 30.601562 -8.839844 "/></g></g></g><g fill="#000000" fill-opacity="1"><g transform="translate(205.928836, 528.76136)"><g><path d="M 19.71875 -238 C 18.019531 -238 16.660156 -236.976562 16.660156 -235.617188 L 16.660156 -234.9375 C 16.660156 -233.578125 17 -231.878906 19.039062 -229.160156 L 31.28125 -213.179688 L 31.28125 -8.839844 C 31.28125 -3.398438 33.320312 0 38.757812 0 L 87.378906 0 C 89.078125 0 89.757812 -1.019531 89.757812 -2.378906 L 89.757812 -4.078125 C 89.757812 -6.460938 89.417969 -7.820312 87.378906 -10.878906 L 36.039062 -78.199219 L 36.039062 -206.71875 L 187.339844 -8.839844 C 192.097656 -3.058594 196.519531 0 200.9375 0 L 213.859375 0 C 219.296875 0 221.339844 -3.398438 221.339844 -8.839844 L 221.339844 -229.160156 C 221.339844 -234.597656 219.296875 -238 213.859375 -238 L 175.097656 -238 C 173.398438 -238 172.71875 -236.976562 172.71875 -235.617188 L 172.71875 -233.917969 C 172.71875 -231.539062 172.71875 -229.839844 175.097656 -227.117188 L 216.578125 -172.71875 L 216.578125 -88.058594 L 215.898438 -88.058594 L 98.257812 -230.859375 C 93.839844 -235.957031 90.78125 -238 85.679688 -238 Z M 19.71875 -238 "/></g></g></g><g fill="#000000" fill-opacity="1"><g transform="translate(462.966535, 528.76136)"><g><path d="M 30.601562 -8.839844 C 30.601562 -3.398438 32.640625 0 38.078125 0 L 84.660156 0 C 90.097656 0 92.140625 -3.398438 92.140625 -8.839844 L 92.140625 -229.160156 C 92.140625 -234.597656 90.097656 -238 84.660156 -238 L 38.078125 -238 C 32.640625 -238 30.601562 -234.597656 30.601562 -229.160156 Z M 235.617188 -229.160156 C 239.019531 -233.578125 238 -238 231.199219 -238 L 163.199219 -238 C 157.417969 -238 155.378906 -233.578125 158.777344 -229.160156 L 193.796875 -183.257812 C 155.378906 -132.597656 144.5 -119.339844 99.277344 -119.339844 L 99.277344 -114.917969 L 180.539062 -8.839844 C 184.617188 -4.078125 189.71875 0 195.839844 0 L 252.617188 0 C 259.078125 0 260.097656 -4.421875 257.039062 -8.839844 L 161.160156 -134.300781 Z M 235.617188 -229.160156 "/></g></g></g><g clip-path="url(#id1)"><path fill="#ffffff" d="M -351.070312 412.5 L 1160.929688 412.5 L 1160.929688 493.5 L -351.070312 493.5 L -351.070312 412.5 " fill-opacity="1" fill-rule="nonzero"/></g><g fill="#000000" fill-opacity="1"><g transform="translate(342.15236, 260.936505)"><g><path d="M 22.535156 0 L 27.933594 0 L 27.933594 -4.03125 L 22.675781 -4.03125 C 17.0625 -4.03125 14.542969 -6.910156 14.542969 -13.03125 L 14.542969 -33.40625 L 27.429688 -33.40625 L 27.429688 -37.21875 L 14.542969 -37.21875 L 14.542969 -46.363281 L 11.230469 -46.363281 L 10.871094 -40.675781 C 10.582031 -37.941406 9.789062 -37.21875 6.984375 -37.21875 L 2.230469 -37.21875 L 2.230469 -33.40625 L 10.367188 -33.40625 L 10.367188 -12.886719 C 10.367188 -4.464844 14.613281 0 22.535156 0 Z M 22.535156 0 "/></g></g></g><g fill="#000000" fill-opacity="1"><g transform="translate(373.827235, 260.936505)"><g><path d="M 7.414062 0 L 11.589844 0 L 11.589844 -19.367188 C 11.589844 -28.292969 17.132812 -34.125 24.980469 -34.125 C 32.398438 -34.125 36.933594 -28.941406 36.933594 -20.375 L 36.933594 0 L 41.109375 0 L 41.109375 -20.734375 C 41.109375 -31.460938 35.203125 -38.15625 25.558594 -38.15625 C 19.726562 -38.15625 14.542969 -35.5625 11.589844 -30.453125 L 11.589844 -53.273438 L 7.414062 -53.273438 Z M 7.414062 0 "/></g></g></g><g fill="#000000" fill-opacity="1"><g transform="translate(421.555504, 260.936505)"><g><path d="M 23.179688 0.9375 C 31.53125 0.9375 38.300781 -3.457031 41.179688 -10.582031 L 36.5 -10.65625 C 34.050781 -5.832031 29.230469 -3.023438 23.179688 -3.023438 C 14.902344 -3.023438 9.144531 -8.496094 8.421875 -16.917969 L 42.257812 -16.917969 C 42.546875 -29.515625 34.988281 -38.15625 23.253906 -38.15625 C 11.949219 -38.15625 4.175781 -30.164062 4.175781 -18.644531 C 4.175781 -7.054688 11.878906 0.9375 23.179688 0.9375 Z M 8.421875 -20.589844 C 9.144531 -28.796875 14.972656 -34.195312 23.253906 -34.195312 C 31.390625 -34.195312 37.148438 -29.011719 38.15625 -20.589844 Z M 8.421875 -20.589844 "/></g></g></g><g fill="#000000" fill-opacity="1"><g transform="translate(308.777361, 477.749996)"><g><path d="M 23.179688 0.9375 C 32.324219 0.9375 39.308594 -4.320312 41.828125 -13.03125 L 37.4375 -13.03125 C 35.347656 -6.910156 30.019531 -3.09375 23.179688 -3.09375 C 14.398438 -3.09375 8.351562 -9.429688 8.351562 -18.644531 C 8.351562 -27.789062 14.398438 -34.125 23.179688 -34.125 C 29.589844 -34.125 34.773438 -30.742188 37.21875 -24.835938 L 41.46875 -24.835938 C 39.308594 -32.902344 32.035156 -38.15625 23.179688 -38.15625 C 12.023438 -38.15625 4.175781 -30.09375 4.175781 -18.644531 C 4.175781 -7.199219 12.023438 0.9375 23.179688 0.9375 Z M 23.179688 0.9375 "/></g></g></g><g fill="#000000" fill-opacity="1"><g transform="translate(354.561943, 477.749996)"><g><path d="M 23.757812 0.9375 C 35.203125 0.9375 43.265625 -7.128906 43.265625 -18.644531 C 43.265625 -30.09375 35.203125 -38.15625 23.757812 -38.15625 C 12.238281 -38.15625 4.175781 -30.09375 4.175781 -18.644531 C 4.175781 -7.128906 12.238281 0.9375 23.757812 0.9375 Z M 8.351562 -18.644531 C 8.351562 -27.789062 14.613281 -34.125 23.757812 -34.125 C 32.828125 -34.125 39.09375 -27.789062 39.09375 -18.644531 C 39.09375 -9.429688 32.828125 -3.09375 23.757812 -3.09375 C 14.613281 -3.09375 8.351562 -9.429688 8.351562 -18.644531 Z M 8.351562 -18.644531 "/></g></g></g><g fill="#000000" fill-opacity="1"><g transform="translate(402.002256, 477.749996)"><g><path d="M 7.414062 0 L 11.589844 0 L 11.589844 -17.132812 C 11.589844 -28.4375 16.917969 -33.332031 24.910156 -33.332031 L 28.148438 -33.332031 L 28.148438 -37.21875 L 25.054688 -37.21875 C 18.140625 -37.21875 13.894531 -34.484375 11.375 -28.867188 L 10.941406 -37.21875 L 7.414062 -37.21875 Z M 7.414062 0 "/></g></g></g><g fill="#000000" fill-opacity="1"><g transform="translate(433.245197, 477.749996)"><g><path d="M 27.285156 0.9375 C 38.589844 0.9375 46.363281 -7.34375 46.363281 -18.644531 C 46.363281 -29.949219 38.589844 -38.15625 27.285156 -38.15625 C 20.300781 -38.15625 14.613281 -34.988281 11.375 -29.804688 L 10.941406 -37.21875 L 7.414062 -37.21875 L 7.414062 14.398438 L 11.589844 14.398438 L 11.589844 -7.054688 C 14.902344 -2.160156 20.445312 0.9375 27.285156 0.9375 Z M 11.445312 -18.644531 C 11.445312 -27.71875 17.710938 -34.125 26.851562 -34.125 C 35.996094 -34.125 42.1875 -27.71875 42.1875 -18.644531 C 42.1875 -9.503906 35.996094 -3.09375 26.851562 -3.09375 C 17.710938 -3.09375 11.445312 -9.503906 11.445312 -18.644531 Z M 11.445312 -18.644531 "/></g></g></g><g fill="#000000" fill-opacity="1"><g transform="translate(483.781011, 477.749996)"><g><path d="M 8.710938 0.433594 C 11.015625 0.433594 12.527344 -1.152344 12.527344 -3.3125 C 12.527344 -5.472656 11.015625 -7.054688 8.710938 -7.054688 C 6.40625 -7.054688 4.894531 -5.472656 4.894531 -3.3125 C 4.894531 -1.152344 6.40625 0.433594 8.710938 0.433594 Z M 8.710938 0.433594 "/></g></g></g><g clip-path="url(#id2)"><path fill="#000000" d="M 65.246094 65.246094 L 65.246094 744.746094 L 744.746094 744.746094 L 744.746094 65.246094 L 65.246094 65.246094 M 733.707031 733.707031 L 76.050781 733.707031 L 76.050781 76.050781 L 733.707031 76.050781 L 733.707031 733.707031 " fill-opacity="1" fill-rule="nonzero"/></g></svg>